<svg width="157" height="55" viewBox="0 0 157 55" fill="none" xmlns="http://www.w3.org/2000/svg">
<path fill-rule="evenodd" clip-rule="evenodd" d="M7.96948 15.612C7.96948 10.7356 12.6897 7.2517 17.3495 8.68884L41.62 16.1741C44.6576 17.1109 46.7297 19.9184 46.7297 23.0972V34.8717C46.7297 38.6894 43.7672 41.852 39.9577 42.1012L15.6873 43.689C11.5089 43.9623 7.96948 40.6469 7.96948 36.4595V15.612ZM24.995 37.3383L17.75 28.6444L20.2858 25.7465L25.3572 31.5424L38.0358 20.3128L40.5714 22.8485L24.995 37.3383Z" fill="#4BB3FD"/>
<path d="M16.9321 27.9288L16.321 28.6272L16.9151 29.3402L24.1601 38.034L24.8948 38.9157L25.7351 38.134L41.3116 23.6442L42.1365 22.8768L41.3399 22.0801L38.8042 19.5444L38.081 18.8211L37.3152 19.4993L25.4551 30.004L21.1037 25.0309L20.2858 24.0962L19.468 25.0308L16.9321 27.9288ZM17.0293 9.72731L41.2997 17.2126C43.8817 18.0089 45.643 20.3953 45.643 23.0972V34.8717C45.643 38.1167 43.1249 40.8049 39.8868 41.0168L15.6164 42.6046C12.0647 42.8369 9.05622 40.0188 9.05622 36.4595V15.612C9.05622 11.467 13.0684 8.50574 17.0293 9.72731Z" stroke="#4BB3FD" stroke-width="2.17347"/>
<path d="M56.2467 21.6171L56.8065 18.3075H71.0576L70.4977 21.6171H65.3851L63.1458 35.1684H59.1282L61.3675 21.6171H56.2467ZM84.433 27.0014C84.1257 28.8181 83.5219 30.3522 82.6218 31.6035C81.7272 32.8494 80.6377 33.7935 79.3534 34.4356C78.0746 35.0778 76.6997 35.3989 75.2287 35.3989C73.6755 35.3989 72.3308 35.0531 71.1946 34.3615C70.0585 33.67 69.2325 32.6628 68.7166 31.3401C68.2061 30.0174 68.1073 28.4119 68.4202 26.5239C68.7166 24.7072 69.3121 23.1704 70.2067 21.9135C71.1068 20.6566 72.2018 19.7043 73.4916 19.0567C74.7869 18.4036 76.1755 18.077 77.6574 18.077C79.1997 18.077 80.5362 18.4255 81.6668 19.1226C82.8029 19.8196 83.6262 20.8322 84.1367 22.1605C84.6471 23.4887 84.7459 25.1023 84.433 27.0014ZM80.3578 26.5239C80.5279 25.4646 80.5279 24.5727 80.3578 23.8482C80.1931 23.1237 79.8693 22.5776 79.3863 22.2099C78.9033 21.8367 78.2749 21.65 77.501 21.65C76.6448 21.65 75.8709 21.8614 75.1793 22.284C74.4933 22.7011 73.9197 23.3103 73.4587 24.1117C72.9976 24.9075 72.6766 25.8707 72.4954 27.0014C72.3088 28.0717 72.3033 28.9635 72.479 29.6771C72.6601 30.3906 72.9976 30.9285 73.4916 31.2907C73.9856 31.6475 74.614 31.8258 75.3769 31.8258C76.2277 31.8258 76.9933 31.62 77.6739 31.2084C78.3545 30.7967 78.9225 30.1957 79.3781 29.4054C79.8391 28.615 80.1657 27.6545 80.3578 26.5239ZM89.4584 35.1684H83.1356L85.9347 18.3075H92.0682C93.7806 18.3075 95.2076 18.656 96.3493 19.3531C97.4964 20.0446 98.3059 21.0381 98.7779 22.3334C99.2555 23.6232 99.346 25.16 99.0496 26.9438C98.7642 28.6672 98.1907 30.1436 97.329 31.373C96.4728 32.6025 95.375 33.5438 94.0358 34.1969C92.6966 34.8445 91.1708 35.1684 89.4584 35.1684ZM87.7789 31.6941H89.7136C90.6576 31.6941 91.4919 31.524 92.2164 31.1837C92.9464 30.8379 93.5501 30.2863 94.0276 29.5289C94.5051 28.766 94.8454 27.7643 95.0485 26.5239C95.2461 25.3384 95.2378 24.4026 95.0238 23.7165C94.8152 23.0249 94.4091 22.531 93.8053 22.2346C93.2071 21.9327 92.4249 21.7818 91.459 21.7818H89.4337L87.7789 31.6941ZM115.025 27.0014C114.717 28.8181 114.114 30.3522 113.213 31.6035C112.319 32.8494 111.229 33.7935 109.945 34.4356C108.666 35.0778 107.291 35.3989 105.82 35.3989C104.267 35.3989 102.922 35.0531 101.786 34.3615C100.65 33.67 99.8241 32.6628 99.3081 31.3401C98.7977 30.0174 98.6989 28.4119 99.0118 26.5239C99.3081 24.7072 99.9036 23.1704 100.798 21.9135C101.698 20.6566 102.793 19.7043 104.083 19.0567C105.378 18.4036 106.767 18.077 108.249 18.077C109.791 18.077 111.128 18.4255 112.258 19.1226C113.395 19.8196 114.218 20.8322 114.728 22.1605C115.239 23.4887 115.337 25.1023 115.025 27.0014ZM110.949 26.5239C111.12 25.4646 111.12 24.5727 110.949 23.8482C110.785 23.1237 110.461 22.5776 109.978 22.2099C109.495 21.8367 108.866 21.65 108.093 21.65C107.236 21.65 106.462 21.8614 105.771 22.284C105.085 22.7011 104.511 23.3103 104.05 24.1117C103.589 24.9075 103.268 25.8707 103.087 27.0014C102.9 28.0717 102.895 28.9635 103.071 29.6771C103.252 30.3906 103.589 30.9285 104.083 31.2907C104.577 31.6475 105.206 31.8258 105.969 31.8258C106.819 31.8258 107.585 31.62 108.265 31.2084C108.946 30.7967 109.514 30.1957 109.97 29.4054C110.431 28.615 110.757 27.6545 110.949 26.5239ZM116.378 35.1684H111.998L120.486 18.3075H125.912L128.801 35.1684H124.422L122.569 22.5557H122.437L116.378 35.1684ZM116.905 28.5327H126.06L125.533 31.6282H116.378L116.905 28.5327ZM128.298 35.1684L131.098 18.3075H138.063C139.325 18.3075 140.376 18.5518 141.216 19.0402C142.056 19.5287 142.651 20.212 143.002 21.0902C143.354 21.9684 143.433 22.9865 143.241 24.1446C143.054 25.3137 142.635 26.3318 141.981 27.199C141.334 28.0662 140.5 28.7385 139.479 29.216C138.458 29.6935 137.297 29.9323 135.996 29.9323H131.707L132.242 26.7215H135.782C136.402 26.7215 136.937 26.6144 137.387 26.4004C137.843 26.1863 138.208 25.8872 138.482 25.503C138.757 25.1188 138.938 24.666 139.026 24.1446C139.108 23.6232 139.075 23.1731 138.927 22.7944C138.779 22.4102 138.513 22.1138 138.128 21.9053C137.75 21.6967 137.256 21.5924 136.647 21.5924H134.638L132.374 35.1684H128.298ZM141.081 35.1684L143.88 18.3075H150.845C152.108 18.3075 153.159 18.5518 153.998 19.0402C154.838 19.5287 155.434 20.212 155.785 21.0902C156.136 21.9684 156.216 22.9865 156.024 24.1446C155.837 25.3137 155.417 26.3318 154.764 27.199C154.116 28.0662 153.282 28.7385 152.261 29.216C151.24 29.6935 150.08 29.9323 148.779 29.9323H144.49L145.025 26.7215H148.565C149.185 26.7215 149.72 26.6144 150.17 26.4004C150.626 26.1863 150.991 25.8872 151.265 25.503C151.54 25.1188 151.721 24.666 151.809 24.1446C151.891 23.6232 151.858 23.1731 151.71 22.7944C151.562 22.4102 151.295 22.1138 150.911 21.9053C150.532 21.6967 150.038 21.5924 149.429 21.5924H147.42L145.156 35.1684H141.081Z" fill="#4BB3FD"/>
</svg>
