<svg width="395" height="138" viewBox="0 0 395 138" fill="none" xmlns="http://www.w3.org/2000/svg">
<path fill-rule="evenodd" clip-rule="evenodd" d="M20.1365 39.4475C20.1365 27.1261 32.0634 18.3232 43.8376 21.9545L105.163 40.8679C112.838 43.2351 118.074 50.3289 118.074 58.3609V88.1122C118.074 97.7584 110.588 105.749 100.963 106.379L39.6376 110.391C29.0797 111.082 20.1365 102.705 20.1365 92.1241V39.4475ZM63.1556 94.3446L44.8494 72.3773L51.2568 65.0549L64.071 79.6997L96.1065 51.3254L102.513 57.7325L63.1556 94.3446Z" fill="#4BB3FD"/>
<path d="M42.7829 70.5691L41.2387 72.3338L42.7399 74.1352L61.0462 96.1025L62.9026 98.3302L65.0259 96.3551L104.384 59.743L106.468 57.804L104.455 55.7909L98.0482 49.3838L96.2206 47.5562L94.2859 49.2698L64.3184 75.8125L53.3233 63.2467L51.2568 60.885L49.1903 63.2467L42.7829 70.5691ZM43.0283 24.5785L104.354 43.4919C110.878 45.5039 115.328 51.5337 115.328 58.3609V88.1122C115.328 96.3115 108.965 103.104 100.784 103.639L39.4583 107.651C30.4841 108.238 22.8824 101.117 22.8824 92.1241V39.4475C22.8824 28.9743 33.0203 21.4919 43.0283 24.5785Z" stroke="#4BB3FD" stroke-width="5.49182"/>
<path d="M141.271 54.6071L142.685 46.2445H178.694L177.279 54.6071H164.361L158.703 88.8477H148.551L154.21 54.6071H141.271ZM212.49 68.2118C211.714 72.8022 210.188 76.6784 207.914 79.8403C205.653 82.9884 202.901 85.3737 199.655 86.9963C196.424 88.6189 192.95 89.4302 189.233 89.4302C185.309 89.4302 181.911 88.5565 179.04 86.8091C176.17 85.0617 174.082 82.5169 172.779 79.1746C171.489 75.8324 171.239 71.7759 172.03 67.0053C172.779 62.4149 174.284 58.5318 176.544 55.356C178.818 52.1801 181.585 49.774 184.844 48.1376C188.117 46.4872 191.626 45.6621 195.37 45.6621C199.267 45.6621 202.644 46.5427 205.501 48.304C208.372 50.0652 210.452 52.6239 211.742 55.98C213.031 59.3361 213.281 63.4134 212.49 68.2118ZM202.193 67.0053C202.623 64.3287 202.623 62.0751 202.193 60.2445C201.777 58.4139 200.959 57.034 199.739 56.1049C198.518 55.1618 196.93 54.6903 194.975 54.6903C192.811 54.6903 190.856 55.2242 189.109 56.2921C187.375 57.3461 185.926 58.8854 184.761 60.9102C183.596 62.9211 182.785 65.355 182.327 68.2118C181.856 70.9161 181.842 73.1697 182.286 74.9726C182.743 76.7754 183.596 78.1345 184.844 79.0498C186.092 79.9513 187.68 80.402 189.608 80.402C191.758 80.402 193.692 79.8819 195.412 78.8418C197.131 77.8017 198.567 76.2831 199.718 74.2861C200.883 72.2891 201.708 69.8621 202.193 67.0053ZM225.188 88.8477H209.212L216.285 46.2445H231.783C236.109 46.2445 239.715 47.1252 242.6 48.8864C245.498 50.6338 247.544 53.144 248.736 56.4169C249.943 59.6759 250.172 63.559 249.423 68.0662C248.702 72.4208 247.253 76.1514 245.075 79.2578C242.912 82.3643 240.138 84.7427 236.754 86.393C233.37 88.0295 229.515 88.8477 225.188 88.8477ZM220.945 80.0691H225.833C228.218 80.0691 230.326 79.6392 232.157 78.7794C234.001 77.9057 235.527 76.5119 236.734 74.5981C237.94 72.6704 238.8 70.1395 239.313 67.0053C239.812 64.0097 239.791 61.6452 239.251 59.9117C238.724 58.1643 237.697 56.9161 236.172 56.1673C234.66 55.4045 232.684 55.0231 230.243 55.0231H225.126L220.945 80.0691ZM289.788 68.2118C289.011 72.8022 287.486 76.6784 285.211 79.8403C282.951 82.9884 280.198 85.3737 276.953 86.9963C273.721 88.6189 270.247 89.4302 266.531 89.4302C262.606 89.4302 259.208 88.5565 256.338 86.8091C253.467 85.0617 251.38 82.5169 250.076 79.1746C248.786 75.8324 248.537 71.7759 249.327 67.0053C250.076 62.4149 251.581 58.5318 253.841 55.356C256.116 52.1801 258.882 49.774 262.141 48.1376C265.414 46.4872 268.923 45.6621 272.667 45.6621C276.564 45.6621 279.941 46.5427 282.798 48.304C285.669 50.0652 287.749 52.6239 289.039 55.98C290.329 59.3361 290.578 63.4134 289.788 68.2118ZM279.491 67.0053C279.921 64.3287 279.921 62.0751 279.491 60.2445C279.075 58.4139 278.256 57.034 277.036 56.1049C275.816 55.1618 274.228 54.6903 272.272 54.6903C270.109 54.6903 268.153 55.2242 266.406 56.2921C264.672 57.3461 263.223 58.8854 262.058 60.9102C260.893 62.9211 260.082 65.355 259.624 68.2118C259.153 70.9161 259.139 73.1697 259.583 74.9726C260.04 76.7754 260.893 78.1345 262.141 79.0498C263.39 79.9513 264.978 80.402 266.905 80.402C269.055 80.402 270.989 79.8819 272.709 78.8418C274.429 77.8017 275.864 76.2831 277.015 74.2861C278.18 72.2891 279.005 69.8621 279.491 67.0053ZM293.208 88.8477H282.141L303.588 46.2445H317.297L324.598 88.8477H313.532L308.851 56.9785H308.518L293.208 88.8477ZM294.539 72.081H317.671L316.34 79.9027H293.208L294.539 72.081ZM323.327 88.8477L330.4 46.2445H347.999C351.189 46.2445 353.844 46.8617 355.966 48.096C358.088 49.3302 359.593 51.0568 360.48 53.2757C361.368 55.4947 361.569 58.0672 361.084 60.9934C360.612 63.9473 359.551 66.5199 357.901 68.7111C356.264 70.9022 354.156 72.6011 351.577 73.8076C348.997 75.0142 346.064 75.6174 342.778 75.6174H331.94L333.292 67.5045H342.237C343.804 67.5045 345.156 67.2341 346.293 66.6932C347.444 66.1524 348.366 65.3966 349.06 64.4258C349.753 63.455 350.211 62.3109 350.433 60.9934C350.641 59.6759 350.558 58.5387 350.183 57.5818C349.809 56.611 349.136 55.8622 348.165 55.3352C347.208 54.8082 345.96 54.5447 344.421 54.5447H339.345L333.625 88.8477H323.327ZM355.626 88.8477L362.699 46.2445H380.298C383.487 46.2445 386.143 46.8617 388.265 48.096C390.387 49.3302 391.892 51.0568 392.779 53.2757C393.667 55.4947 393.868 58.0672 393.382 60.9934C392.911 63.9473 391.85 66.5199 390.2 68.7111C388.563 70.9022 386.455 72.6011 383.876 73.8076C381.296 75.0142 378.363 75.6174 375.076 75.6174H364.238L365.59 67.5045H374.535C376.103 67.5045 377.455 67.2341 378.592 66.6932C379.743 66.1524 380.665 65.3966 381.359 64.4258C382.052 63.455 382.51 62.3109 382.732 60.9934C382.94 59.6759 382.856 58.5387 382.482 57.5818C382.107 56.611 381.435 55.8622 380.464 55.3352C379.507 54.8082 378.259 54.5447 376.72 54.5447H371.644L365.923 88.8477H355.626Z" fill="#4BB3FD"/>
</svg>
