<svg width="284" height="99" viewBox="0 0 284 99" fill="none" xmlns="http://www.w3.org/2000/svg">
<path fill-rule="evenodd" clip-rule="evenodd" d="M14.4639 28.3348C14.4639 19.4844 23.0309 13.1614 31.4882 15.7697L75.5376 29.3551C81.0507 31.0554 84.8115 36.1508 84.8115 41.9202V63.2903C84.8115 70.2191 79.4348 75.959 72.5208 76.4113L28.4713 79.2931C20.8877 79.7892 14.4639 73.7718 14.4639 66.172V28.3348ZM45.3642 67.767L32.2149 51.9881L36.8173 46.7284L46.0217 57.2477L69.0325 36.8666L73.6346 41.4688L45.3642 67.767Z" fill="#4BB3FD"/>
<path d="M30.7306 50.6892L29.6214 51.9568L30.6997 53.2507L43.849 69.0296L45.1825 70.6298L46.7076 69.2111L74.9779 42.9129L76.4752 41.5201L75.0293 40.0741L70.4272 35.4719L69.1145 34.1592L67.7248 35.3901L46.1994 54.4555L38.3017 45.4296L36.8173 43.7332L35.333 45.4296L30.7306 50.6892ZM30.9069 17.6545L74.9563 31.2398C79.6424 32.6851 82.8391 37.0162 82.8391 41.9202V63.2903C82.8391 69.1797 78.2689 74.0587 72.392 74.4432L28.3426 77.3249C21.8965 77.7466 16.4362 72.6319 16.4362 66.172V28.3348C16.4362 20.812 23.7182 15.4374 30.9069 17.6545Z" stroke="#4BB3FD" stroke-width="3.94473"/>
<path d="M101.474 38.9995L102.49 32.9928H128.354L127.338 38.9995H118.059L113.995 63.5943H106.703L110.768 38.9995H101.474ZM152.63 48.7717C152.072 52.0689 150.977 54.8531 149.343 57.1243C147.719 59.3856 145.742 61.0989 143.411 62.2644C141.09 63.4299 138.595 64.0126 135.925 64.0126C133.106 64.0126 130.665 63.3851 128.603 62.1299C126.541 60.8748 125.042 59.0469 124.106 56.6462C123.179 54.2455 123 51.3317 123.568 47.905C124.106 44.6078 125.186 41.8186 126.81 39.5374C128.444 37.2562 130.431 35.5279 132.772 34.3525C135.123 33.1671 137.643 32.5744 140.333 32.5744C143.132 32.5744 145.558 33.2069 147.61 34.472C149.672 35.7371 151.166 37.575 152.092 39.9857C153.019 42.3963 153.198 45.325 152.63 48.7717ZM145.234 47.905C145.543 45.9825 145.543 44.3637 145.234 43.0488C144.935 41.7339 144.347 40.7427 143.471 40.0753C142.594 39.398 141.453 39.0593 140.049 39.0593C138.495 39.0593 137.09 39.4428 135.835 40.2098C134.59 40.9669 133.549 42.0726 132.712 43.527C131.876 44.9714 131.293 46.7196 130.964 48.7717C130.625 50.7141 130.615 52.3329 130.934 53.6279C131.263 54.9228 131.876 55.8991 132.772 56.5565C133.669 57.204 134.809 57.5278 136.194 57.5278C137.738 57.5278 139.127 57.1542 140.363 56.4071C141.598 55.66 142.629 54.5692 143.456 53.1348C144.292 51.7003 144.885 49.9571 145.234 47.905ZM161.751 63.5943H150.275L155.356 32.9928H166.488C169.596 32.9928 172.185 33.6253 174.257 34.8904C176.339 36.1455 177.809 37.9486 178.665 40.2995C179.532 42.6404 179.696 45.4296 179.158 48.6671C178.641 51.795 177.6 54.4746 176.036 56.7059C174.482 58.9373 172.489 60.6457 170.059 61.8311C167.628 63.0065 164.859 63.5943 161.751 63.5943ZM158.703 57.2887H162.214C163.927 57.2887 165.442 56.9799 166.757 56.3623C168.081 55.7347 169.177 54.7336 170.044 53.3589C170.91 51.9743 171.528 50.1563 171.897 47.905C172.255 45.7533 172.24 44.0549 171.852 42.8097C171.473 41.5546 170.736 40.6581 169.64 40.1202C168.555 39.5723 167.135 39.2983 165.382 39.2983H161.706L158.703 57.2887ZM208.152 48.7717C207.594 52.0689 206.499 54.8531 204.865 57.1243C203.241 59.3856 201.264 61.0989 198.933 62.2644C196.612 63.4299 194.117 64.0126 191.447 64.0126C188.628 64.0126 186.187 63.3851 184.125 62.1299C182.063 60.8748 180.564 59.0469 179.628 56.6462C178.701 54.2455 178.522 51.3317 179.09 47.905C179.628 44.6078 180.708 41.8186 182.332 39.5374C183.966 37.2562 185.953 35.5279 188.294 34.3525C190.645 33.1671 193.165 32.5744 195.855 32.5744C198.654 32.5744 201.08 33.2069 203.132 34.472C205.194 35.7371 206.688 37.575 207.614 39.9857C208.541 42.3963 208.72 45.325 208.152 48.7717ZM200.756 47.905C201.065 45.9825 201.065 44.3637 200.756 43.0488C200.457 41.7339 199.869 40.7427 198.993 40.0753C198.116 39.398 196.976 39.0593 195.571 39.0593C194.017 39.0593 192.612 39.4428 191.357 40.2098C190.112 40.9669 189.071 42.0726 188.234 43.527C187.398 44.9714 186.815 46.7196 186.486 48.7717C186.147 50.7141 186.137 52.3329 186.456 53.6279C186.785 54.9228 187.398 55.8991 188.294 56.5565C189.191 57.204 190.331 57.5278 191.716 57.5278C193.26 57.5278 194.65 57.1542 195.885 56.4071C197.12 55.66 198.151 54.5692 198.978 53.1348C199.815 51.7003 200.407 49.9571 200.756 47.905ZM210.609 63.5943H202.66L218.065 32.9928H227.912L233.156 63.5943H225.207L221.845 40.7029H221.606L210.609 63.5943ZM211.565 51.5509H228.181L227.224 57.1691H210.609L211.565 51.5509ZM232.243 63.5943L237.324 32.9928H249.965C252.256 32.9928 254.164 33.436 255.688 34.3226C257.212 35.2092 258.293 36.4494 258.93 38.0432C259.568 39.637 259.712 41.4849 259.363 43.5867C259.025 45.7085 258.263 47.5564 257.077 49.1303C255.902 50.7042 254.388 51.9245 252.535 52.7911C250.682 53.6577 248.575 54.0911 246.214 54.0911H238.429L239.401 48.2636H245.826C246.952 48.2636 247.923 48.0694 248.74 47.6809C249.566 47.2924 250.229 46.7495 250.727 46.0522C251.225 45.3549 251.554 44.5331 251.713 43.5867C251.862 42.6404 251.803 41.8236 251.534 41.1362C251.265 40.4389 250.782 39.901 250.084 39.5225C249.397 39.1439 248.501 38.9547 247.395 38.9547H243.749L239.64 63.5943H232.243ZM255.443 63.5943L260.524 32.9928H273.165C275.456 32.9928 277.363 33.436 278.888 34.3226C280.412 35.2092 281.493 36.4494 282.13 38.0432C282.768 39.637 282.912 41.4849 282.563 43.5867C282.225 45.7085 281.463 47.5564 280.277 49.1303C279.102 50.7042 277.588 51.9245 275.735 52.7911C273.882 53.6577 271.775 54.0911 269.414 54.0911H261.629L262.601 48.2636H269.026C270.151 48.2636 271.123 48.0694 271.939 47.6809C272.766 47.2924 273.429 46.7495 273.927 46.0522C274.425 45.3549 274.754 44.5331 274.913 43.5867C275.062 42.6404 275.003 41.8236 274.734 41.1362C274.465 40.4389 273.982 39.901 273.284 39.5225C272.597 39.1439 271.7 38.9547 270.595 38.9547H266.949L262.84 63.5943H255.443Z" fill="#4BB3FD"/>
</svg>
